<mxfile host="app.diagrams.net" modified="2024-06-01T14:43:03.087Z" agent="Mozilla/5.0 (Windows NT 10.0; Win64; x64) AppleWebKit/537.36 (KHTML, like Gecko) Chrome/125.0.0.0 Safari/537.36" etag="0Xcgis9YGsCJ9gyxL61m" version="24.4.13" type="device">
  <diagram name="Page-1" id="cnfZ1_VsamvA75_lwqkr">
    <mxGraphModel dx="1290" dy="557" grid="1" gridSize="10" guides="1" tooltips="1" connect="1" arrows="1" fold="1" page="1" pageScale="1" pageWidth="1100" pageHeight="850" math="0" shadow="0">
      <root>
        <mxCell id="0" />
        <mxCell id="1" parent="0" />
        <mxCell id="GcLukXHofbAnjRadzui5-1" value="" style="rounded=0;whiteSpace=wrap;html=1;" vertex="1" parent="1">
          <mxGeometry x="370" y="20" width="520" height="490" as="geometry" />
        </mxCell>
        <mxCell id="GcLukXHofbAnjRadzui5-2" value="User" style="shape=umlActor;verticalLabelPosition=bottom;verticalAlign=top;html=1;outlineConnect=0;" vertex="1" parent="1">
          <mxGeometry x="230" y="250" width="30" height="60" as="geometry" />
        </mxCell>
        <mxCell id="GcLukXHofbAnjRadzui5-3" value="Export the report" style="ellipse;whiteSpace=wrap;html=1;" vertex="1" parent="1">
          <mxGeometry x="470" y="140" width="110" height="70" as="geometry" />
        </mxCell>
        <mxCell id="GcLukXHofbAnjRadzui5-5" value="Add graph data to the report" style="ellipse;whiteSpace=wrap;html=1;" vertex="1" parent="1">
          <mxGeometry x="470" y="360" width="110" height="70" as="geometry" />
        </mxCell>
        <mxCell id="GcLukXHofbAnjRadzui5-6" value="" style="endArrow=none;html=1;rounded=0;entryX=0;entryY=0.5;entryDx=0;entryDy=0;exitX=1;exitY=0.3333333333333333;exitDx=0;exitDy=0;exitPerimeter=0;" edge="1" parent="1" source="GcLukXHofbAnjRadzui5-2" target="GcLukXHofbAnjRadzui5-3">
          <mxGeometry width="50" height="50" relative="1" as="geometry">
            <mxPoint x="280" y="180" as="sourcePoint" />
            <mxPoint x="570" y="280" as="targetPoint" />
          </mxGeometry>
        </mxCell>
        <mxCell id="GcLukXHofbAnjRadzui5-7" value="Reporting" style="text;html=1;align=center;verticalAlign=middle;whiteSpace=wrap;rounded=0;" vertex="1" parent="1">
          <mxGeometry x="545" y="30" width="170" height="30" as="geometry" />
        </mxCell>
        <mxCell id="GcLukXHofbAnjRadzui5-9" value="Export as a PDF" style="ellipse;whiteSpace=wrap;html=1;" vertex="1" parent="1">
          <mxGeometry x="660" y="70" width="110" height="70" as="geometry" />
        </mxCell>
        <mxCell id="GcLukXHofbAnjRadzui5-10" value="" style="endArrow=classic;html=1;rounded=0;entryX=0;entryY=0.5;entryDx=0;entryDy=0;exitX=1;exitY=0;exitDx=0;exitDy=0;dashed=1;" edge="1" parent="1" source="GcLukXHofbAnjRadzui5-3" target="GcLukXHofbAnjRadzui5-9">
          <mxGeometry width="50" height="50" relative="1" as="geometry">
            <mxPoint x="750" y="180" as="sourcePoint" />
            <mxPoint x="786" y="240" as="targetPoint" />
          </mxGeometry>
        </mxCell>
        <mxCell id="GcLukXHofbAnjRadzui5-11" value="&amp;lt;&amp;lt;include&amp;gt;&amp;gt;" style="text;html=1;align=center;verticalAlign=middle;whiteSpace=wrap;rounded=0;" vertex="1" parent="1">
          <mxGeometry x="560" y="110" width="60" height="30" as="geometry" />
        </mxCell>
        <mxCell id="GcLukXHofbAnjRadzui5-21" value="Add tabular data to the report" style="ellipse;whiteSpace=wrap;html=1;" vertex="1" parent="1">
          <mxGeometry x="470" y="260" width="110" height="70" as="geometry" />
        </mxCell>
        <mxCell id="GcLukXHofbAnjRadzui5-22" value="" style="endArrow=none;html=1;rounded=0;entryX=0;entryY=0.5;entryDx=0;entryDy=0;exitX=1;exitY=0.3333333333333333;exitDx=0;exitDy=0;exitPerimeter=0;" edge="1" parent="1" source="GcLukXHofbAnjRadzui5-2" target="GcLukXHofbAnjRadzui5-21">
          <mxGeometry width="50" height="50" relative="1" as="geometry">
            <mxPoint x="270" y="110" as="sourcePoint" />
            <mxPoint x="480" y="115" as="targetPoint" />
          </mxGeometry>
        </mxCell>
        <mxCell id="GcLukXHofbAnjRadzui5-45" value="" style="endArrow=none;html=1;rounded=0;entryX=0;entryY=0.5;entryDx=0;entryDy=0;exitX=1;exitY=0.3333333333333333;exitDx=0;exitDy=0;exitPerimeter=0;" edge="1" parent="1" source="GcLukXHofbAnjRadzui5-2" target="GcLukXHofbAnjRadzui5-5">
          <mxGeometry width="50" height="50" relative="1" as="geometry">
            <mxPoint x="270" y="110" as="sourcePoint" />
            <mxPoint x="480" y="225" as="targetPoint" />
          </mxGeometry>
        </mxCell>
        <mxCell id="GcLukXHofbAnjRadzui5-46" value="Export as a CSV file" style="ellipse;whiteSpace=wrap;html=1;" vertex="1" parent="1">
          <mxGeometry x="660" y="150" width="110" height="70" as="geometry" />
        </mxCell>
        <mxCell id="GcLukXHofbAnjRadzui5-47" value="Export as a Excel file" style="ellipse;whiteSpace=wrap;html=1;" vertex="1" parent="1">
          <mxGeometry x="660" y="230" width="110" height="70" as="geometry" />
        </mxCell>
        <mxCell id="GcLukXHofbAnjRadzui5-48" value="" style="endArrow=classic;html=1;rounded=0;entryX=0;entryY=0.5;entryDx=0;entryDy=0;exitX=1;exitY=0.5;exitDx=0;exitDy=0;dashed=1;" edge="1" parent="1" source="GcLukXHofbAnjRadzui5-3" target="GcLukXHofbAnjRadzui5-46">
          <mxGeometry width="50" height="50" relative="1" as="geometry">
            <mxPoint x="590" y="185" as="sourcePoint" />
            <mxPoint x="670" y="115" as="targetPoint" />
          </mxGeometry>
        </mxCell>
        <mxCell id="GcLukXHofbAnjRadzui5-49" value="" style="endArrow=classic;html=1;rounded=0;entryX=0;entryY=0.5;entryDx=0;entryDy=0;dashed=1;exitX=1;exitY=1;exitDx=0;exitDy=0;" edge="1" parent="1" source="GcLukXHofbAnjRadzui5-3" target="GcLukXHofbAnjRadzui5-47">
          <mxGeometry width="50" height="50" relative="1" as="geometry">
            <mxPoint x="580" y="190" as="sourcePoint" />
            <mxPoint x="670" y="195" as="targetPoint" />
          </mxGeometry>
        </mxCell>
        <mxCell id="GcLukXHofbAnjRadzui5-50" value="&amp;lt;&amp;lt;include&amp;gt;&amp;gt;" style="text;html=1;align=center;verticalAlign=middle;whiteSpace=wrap;rounded=0;" vertex="1" parent="1">
          <mxGeometry x="590" y="150" width="60" height="30" as="geometry" />
        </mxCell>
        <mxCell id="GcLukXHofbAnjRadzui5-51" value="&amp;lt;&amp;lt;include&amp;gt;&amp;gt;" style="text;html=1;align=center;verticalAlign=middle;whiteSpace=wrap;rounded=0;" vertex="1" parent="1">
          <mxGeometry x="600" y="200" width="60" height="30" as="geometry" />
        </mxCell>
      </root>
    </mxGraphModel>
  </diagram>
</mxfile>
